<svg xmlns="http://www.w3.org/2000/svg" width="200" height="50" viewBox="0 0 200 50" shape-rendering="auto"><polyline points="0,47.5 1.2345679012345678,47.5 2.4691358024691357,47.5 3.7037037037037033,47.5 4.938271604938271,47.5 6.172839506172839,47.5 7.407407407407407,47.5 8.641975308641975,47.5 9.876543209876543,47.5 11.11111111111111,47.5 12.345679012345679,47.5 13.580246913580247,47.5 14.814814814814815,47.5 16.049382716049383,47.5 17.28395061728395,47.5 18.518518518518515,47.5 19.75308641975308,47.5 20.987654320987648,47.5 22.222222222222214,47.5 23.45679012345678,42.590909090909136 24.691358024691347,42.590909090909136 25.925925925925913,42.590909090909136 27.16049382716048,42.590909090909136 28.395061728395046,42.590909090909136 29.629629629629612,42.590909090909136 30.86419753086418,42.590909090909136 32.098765432098745,42.590909090909136 33.333333333333314,42.590909090909136 34.567901234567884,42.590909090909136 35.802469135802454,42.590909090909136 37.037037037037024,42.590909090909136 38.271604938271594,42.590909090909136 39.50617283950616,42.590909090909136 40.74074074074073,42.590909090909136 41.9753086419753,42.590909090909136 43.20987654320987,42.590909090909136 44.44444444444444,42.590909090909136 45.67901234567901,42.590909090909136 46.91358024691358,42.590909090909136 48.14814814814815,42.590909090909136 49.38271604938272,42.590909090909136 50.61728395061729,42.590909090909136 51.85185185185186,42.590909090909136 53.08641975308643,42.590909090909136 54.320987654321,42.590909090909136 55.55555555555557,42.590909090909136 56.79012345679014,42.590909090909136 58.02469135802471,42.590909090909136 59.25925925925928,42.590909090909136 60.49382716049385,42.590909090909136 61.72839506172842,42.590909090909136 62.96296296296299,42.590909090909136 64.19753086419756,42.590909090909136 65.43209876543213,42.590909090909136 66.6666666666667,42.590909090909136 67.90123456790127,42.590909090909136 69.13580246913584,42.590909090909136 70.37037037037041,42.590909090909136 71.60493827160498,42.590909090909136 72.83950617283955,42.590909090909136 74.07407407407412,42.590909090909136 75.30864197530869,42.590909090909136 76.54320987654326,42.590909090909136 77.77777777777783,42.590909090909136 79.0123456790124,42.590909090909136 80.24691358024697,42.590909090909136 81.48148148148154,42.590909090909136 82.71604938271611,42.590909090909136 83.95061728395068,42.590909090909136 85.18518518518525,42.590909090909136 86.41975308641982,42.590909090909136 87.65432098765439,42.590909090909136 88.88888888888896,42.590909090909136 90.12345679012353,42.590909090909136 91.3580246913581,42.590909090909136 92.59259259259267,42.590909090909136 93.82716049382724,42.590909090909136 95.0617283950618,42.590909090909136 96.29629629629638,42.590909090909136 97.53086419753095,42.590909090909136 98.76543209876552,42.590909090909136 100.00000000000009,42.590909090909136 101.23456790123466,42.590909090909136 102.46913580246922,42.590909090909136 103.7037037037038,42.590909090909136 104.93827160493836,42.590909090909136 106.17283950617293,42.590909090909136 107.4074074074075,42.590909090909136 108.64197530864207,42.590909090909136 109.87654320987664,42.590909090909136 111.11111111111121,42.590909090909136 112.34567901234578,42.590909090909136 113.58024691358035,42.590909090909136 114.81481481481492,42.590909090909136 116.0493827160495,42.590909090909136 117.28395061728406,42.590909090909136 118.51851851851863,42.590909090909136 119.7530864197532,42.590909090909136 120.98765432098777,42.590909090909136 122.22222222222234,42.590909090909136 123.45679012345691,42.590909090909136 124.69135802469148,42.590909090909136 125.92592592592605,42.590909090909136 127.16049382716062,42.590909090909136 128.39506172839518,42.590909090909136 129.62962962962973,42.590909090909136 130.8641975308643,42.590909090909136 132.09876543209884,42.590909090909136 133.3333333333334,42.590909090909136 134.56790123456796,42.590909090909136 135.8024691358025,42.590909090909136 137.03703703703707,42.590909090909136 138.27160493827162,42.590909090909136 139.50617283950618,42.590909090909136 140.74074074074073,42.590909090909136 141.9753086419753,42.590909090909136 143.20987654320984,42.590909090909136 144.4444444444444,42.590909090909136 145.67901234567896,42.590909090909136 146.9135802469135,42.590909090909136 148.14814814814807,42.590909090909136 149.38271604938262,42.590909090909136 150.61728395061718,42.590909090909136 151.85185185185173,42.590909090909136 153.0864197530863,42.590909090909136 154.32098765432085,42.590909090909136 155.5555555555554,42.590909090909136 156.79012345678996,42.590909090909136 158.0246913580245,42.590909090909136 159.25925925925907,42.590909090909136 160.49382716049362,42.590909090909136 161.72839506172818,42.590909090909136 162.96296296296273,42.590909090909136 164.1975308641973,42.590909090909136 165.43209876543185,42.590909090909136 166.6666666666664,42.590909090909136 167.90123456790096,42.590909090909136 169.1358024691355,42.590909090909136 170.37037037037007,42.590909090909136 171.60493827160462,42.590909090909136 172.83950617283918,42.590909090909136 174.07407407407374,42.590909090909136 175.3086419753083,42.590909090909136 176.54320987654285,42.590909090909136 177.7777777777774,42.590909090909136 179.01234567901196,42.590909090909136 180.2469135802465,42.590909090909136 181.48148148148107,42.590909090909136 182.71604938271562,42.590909090909136 183.95061728395018,42.590909090909136 185.18518518518474,42.590909090909136 186.4197530864193,42.590909090909136 187.65432098765385,42.590909090909136 188.8888888888884,42.590909090909136 190.12345679012296,42.590909090909136 191.3580246913575,42.590909090909136 192.59259259259207,42.590909090909136 193.82716049382663,42.590909090909136 195.06172839506118,42.590909090909136 196.29629629629574,42.590909090909136 197.5308641975303,2.500000000000002 198.76543209876485,2.500000000000002 199.9999999999994,NaN " stroke="#00d181" stroke-width="2" stroke-opacity="1" fill="none" fill-opacity="0" stroke-linejoin="round" vector-effect="non-scaling-stroke"/></svg>