<svg xmlns="http://www.w3.org/2000/svg" width="200" height="50" viewBox="0 0 200 50" shape-rendering="auto"><polyline points="0,3.337457054378297 1.2345679012345678,2.500000000000002 2.4691358024691357,2.500000000000002 3.7037037037037033,2.500000000000002 4.938271604938271,2.500000000000002 6.172839506172839,2.500000000000002 7.407407407407407,2.500000000000002 8.641975308641975,2.500000000000002 9.876543209876543,2.500000000000002 11.11111111111111,2.500000000000002 12.345679012345679,2.500000000000002 13.580246913580247,2.500000000000002 14.814814814814815,2.500000000000002 16.049382716049383,2.500000000000002 17.28395061728395,2.500000000000002 18.518518518518515,2.500000000000002 19.75308641975308,2.500000000000002 20.987654320987648,2.500000000000002 22.222222222222214,2.500000000000002 23.45679012345678,2.500000000000002 24.691358024691347,2.500000000000002 25.925925925925913,2.500000000000002 27.16049382716048,2.500000000000002 28.395061728395046,2.500000000000002 29.629629629629612,2.500000000000002 30.86419753086418,2.500000000000002 32.098765432098745,2.500000000000002 33.333333333333314,2.500000000000002 34.567901234567884,2.500000000000002 35.802469135802454,2.500000000000002 37.037037037037024,2.500000000000002 38.271604938271594,2.500000000000002 39.50617283950616,2.500000000000002 40.74074074074073,2.500000000000002 41.9753086419753,2.500003340906036 43.20987654320987,2.500000000000002 44.44444444444444,2.500000000000002 45.67901234567901,2.500000000000002 46.91358024691358,2.500000000000002 48.14814814814815,2.500000000000002 49.38271604938272,2.500000000000002 50.61728395061729,2.500000000000002 51.85185185185186,2.500000000000002 53.08641975308643,2.500000000000002 54.320987654321,2.500000000000002 55.55555555555557,2.500000000000002 56.79012345679014,2.500000000000002 58.02469135802471,2.500000000000002 59.25925925925928,2.500000000000002 60.49382716049385,2.500000000000002 61.72839506172842,2.500000000000002 62.96296296296299,2.500000000000002 64.19753086419756,2.500000000000002 65.43209876543213,2.500000000000002 66.6666666666667,2.500000000000002 67.90123456790127,2.500000000000002 69.13580246913584,2.500000000000002 70.37037037037041,2.500000000000002 71.60493827160498,2.500000000000002 72.83950617283955,2.500000000000002 74.07407407407412,2.500000000000002 75.30864197530869,2.500334090605362 76.54320987654326,2.500334090605362 77.77777777777783,2.500334090605362 79.0123456790124,2.500334090605362 80.24691358024697,2.500334090605362 81.48148148148154,2.500334090605362 82.71604938271611,2.500334090605362 83.95061728395068,2.500334090605362 85.18518518518525,2.500334090605362 86.41975308641982,2.500334090605362 87.65432098765439,2.500334090605362 88.88888888888896,2.500334090605362 90.12345679012353,7.715154349859695 91.3580246913581,7.715154349859695 92.59259259259267,7.715154349859695 93.82716049382724,11.052719497527738 95.0617283950618,11.052719497527738 96.29629629629638,11.052719497527738 97.53086419753095,11.056060403581453 98.76543209876552,11.056060403581453 100.00000000000009,11.056060403581453 101.23456790123466,11.056060403581453 102.46913580246922,11.056060403581453 103.7037037037038,11.056060403581453 104.93827160493836,11.056060403581453 106.17283950617293,11.73092342643328 107.4074074074075,15.79346518775892 108.64197530864207,16.63203260724309 109.87654320987664,17.306895630094917 111.11111111111121,17.644327141520797 112.34567901234578,17.98175865294668 113.58024691358035,18.656621675798508 114.81481481481492,18.99739409327811 116.0493827160495,19.672257116129874 117.28395061728406,19.672257116129874 118.51851851851863,19.672257116129874 119.7530864197532,19.672257116129874 120.98765432098777,19.672257116129874 122.22222222222234,21.021983161833532 123.45679012345691,23.384003741814777 124.69135802469148,23.384003741814777 125.92592592592605,23.384003741814777 127.16049382716062,23.384003741814777 128.39506172839518,23.384003741814777 129.62962962962973,23.384003741814777 130.8641975308643,23.384003741814777 132.09876543209884,23.384003741814777 133.3333333333334,23.384003741814777 134.56790123456796,23.384003741814777 135.8024691358025,23.384003741814777 137.03703703703707,27.75725310704262 138.27160493827162,28.43545369504213 139.50617283950618,28.124749432045956 140.74074074074073,28.458840037418184 141.9753086419753,28.458840037418184 143.20987654320984,28.458840037418184 144.4444444444444,28.458840037418184 145.67901234567896,28.458840037418184 146.9135802469135,28.458840037418184 148.14814814814807,28.458840037418184 149.38271604938262,28.458840037418184 150.61728395061718,31.09815581985835 151.85185185185173,31.09815916076444 153.0864197530863,31.09815916076444 154.32098765432085,32.76861218762529 155.5555555555554,37.77996792730191 156.79012345678996,37.77996792730191 158.0246913580245,37.77996792730191 159.25925925925907,37.77996792730191 160.49382716049362,37.77996792730191 161.72839506172818,37.77996792730191 162.96296296296273,37.77996792730191 164.1975308641973,37.77996792730191 165.43209876543185,37.77996792730191 166.6666666666664,38.114058532674086 167.90123456790096,38.12074034478151 169.1358024691355,40.48610183081653 170.37037037037007,42.72450888681012 171.60493827160462,47.5 172.83950617283918,47.5 174.07407407407374,47.5 175.3086419753083,47.5 176.54320987654285,47.5 177.7777777777774,47.5 179.01234567901196,47.5 180.2469135802465,27.757249766136585 181.48148148148107,27.757249766136585 182.71604938271562,27.757249766136585 183.95061728395018,21.07543765869307 185.18518518518474,19.074234932513708 186.4197530864193,19.074234932513708 187.65432098765385,19.074234932513708 188.8888888888884,19.074234932513708 190.12345679012296,19.074234932513708 191.3580246913575,19.074234932513708 192.59259259259207,19.074234932513708 193.82716049382663,19.074234932513708 195.06172839506118,19.074234932513708 196.29629629629574,19.074234932513708 197.5308641975303,19.448416410530562 198.76543209876485,23.16016303621541 199.9999999999994,NaN " stroke="#fe4134" stroke-width="2" stroke-opacity="1" fill="none" fill-opacity="0" stroke-linejoin="round" vector-effect="non-scaling-stroke"/></svg>