<svg xmlns="http://www.w3.org/2000/svg" width="200" height="50" viewBox="0 0 200 50" shape-rendering="auto"><polyline points="0,3.37117105224271 1.2345679012345678,2.500000000000002 2.4691358024691357,2.500000000000002 3.7037037037037033,6.329787274784968 4.938271604938271,6.329786796061519 6.172839506172839,6.329786796061519 7.407407407407407,6.329787274784968 8.641975308641975,6.329787274784968 9.876543209876543,6.329787274784968 11.11111111111111,6.329787274784968 12.345679012345679,6.329787274784968 13.580246913580247,6.329787274784968 14.814814814814815,6.329787274784968 16.049382716049383,6.329787274784968 17.28395061728395,6.329787274784968 18.518518518518515,6.329787274784968 19.75308641975308,6.329787274784968 20.987654320987648,6.329787274784968 22.222222222222214,6.329787274784968 23.45679012345678,6.329787274784968 24.691358024691347,6.329787274784968 25.925925925925913,6.329787274784968 27.16049382716048,6.329787274784968 28.395061728395046,6.3351063705862645 29.629629629629612,6.3351063705862645 30.86419753086418,6.3351063705862645 32.098765432098745,6.3351063705862645 33.333333333333314,6.3351063705862645 34.567901234567884,6.3351063705862645 35.802469135802454,6.3351063705862645 37.037037037037024,6.3351063705862645 38.271604938271594,6.3351063705862645 39.50617283950616,6.3351063705862645 40.74074074074073,6.3351063705862645 41.9753086419753,6.3351063705862645 43.20987654320987,6.3351063705862645 44.44444444444444,6.3351063705862645 45.67901234567901,6.3351063705862645 46.91358024691358,6.3351063705862645 48.14814814814815,6.3351063705862645 49.38271604938272,6.3351063705862645 50.61728395061729,6.3351063705862645 51.85185185185186,6.3351063705862645 53.08641975308643,6.3351063705862645 54.320987654321,6.3351063705862645 55.55555555555557,6.3351063705862645 56.79012345679014,6.3351063705862645 58.02469135802471,6.3351063705862645 59.25925925925928,6.3351063705862645 60.49382716049385,6.3351063705862645 61.72839506172842,6.3351063705862645 62.96296296296299,6.3351063705862645 64.19753086419756,6.3351063705862645 65.43209876543213,6.3351063705862645 66.6666666666667,6.3351063705862645 67.90123456790127,6.3351063705862645 69.13580246913584,6.3351063705862645 70.37037037037041,6.335148498246372 71.60493827160498,6.335148498246372 72.83950617283955,6.335148498246372 74.07407407407412,6.335148498246372 75.30864197530869,6.335148498246372 76.54320987654326,6.335148498246372 77.77777777777783,6.335148498246372 79.0123456790124,6.335148498246372 80.24691358024697,6.335148498246372 81.48148148148154,6.3834038179083485 82.71604938271611,6.3834038179083485 83.95061728395068,6.3834038179083485 85.18518518518525,6.3834038179083485 86.41975308641982,11.117020889542617 87.65432098765439,11.117020889542617 88.88888888888896,11.595744298890898 90.12345679012353,11.596223022300315 91.3580246913581,11.596223022300315 92.59259259259267,11.595744777614348 93.82716049382724,13.989361345631448 95.0617283950618,13.989361345631448 96.29629629629638,13.989361345631448 97.53086419753095,13.989361345631448 98.76543209876552,13.989361345631448 100.00000000000009,13.989361345631448 101.23456790123466,13.989361345631448 102.46913580246922,14.468084754979303 103.7037037037038,14.468084754979303 104.93827160493836,14.468084754979303 106.17283950617293,18.29787202976427 107.4074074074075,18.29787202976427 108.64197530864207,18.29787202976427 109.87654320987664,18.29787202976427 111.11111111111121,18.29787202976427 112.34567901234578,18.29787202976427 113.58024691358035,23.085106123245794 114.81481481481492,23.085106123245794 116.0493827160495,23.085106123245794 117.28395061728406,23.085106123245794 118.51851851851863,20.691489076505245 119.7530864197532,20.691489076505245 120.98765432098777,20.691489076505245 122.22222222222234,20.691489076505245 123.45679012345691,20.691489076505245 124.69135802469148,20.691489076505245 125.92592592592605,25.478723169986345 127.16049382716062,25.478723169986345 128.39506172839518,25.478723169986345 129.62962962962973,25.478723169986345 130.8641975308643,25.478723169986345 132.09876543209884,25.9574465793342 133.3333333333334,25.9574465793342 134.56790123456796,27.872340216726897 135.8024691358025,27.872340216726897 137.03703703703707,27.872340216726897 138.27160493827162,27.872340216726897 139.50617283950618,25.9574465793342 140.74074074074073,26.00531892026933 141.9753086419753,26.00531892026933 143.20987654320984,26.00531892026933 144.4444444444444,26.00531892026933 145.67901234567896,30.744680672815726 146.9135802469135,30.840425354685124 148.14814814814807,30.840425354685124 149.38271604938262,37.4468084036891 150.61728395061718,37.4468084036891 151.85185185185173,37.4468084036891 153.0864197530863,37.4468084036891 154.32098765432085,37.4468084036891 155.5555555555554,37.4468084036891 156.79012345678996,37.4468084036891 158.0246913580245,37.4468084036891 159.25925925925907,37.4468084036891 160.49382716049362,37.4468084036891 161.72839506172818,37.4468084036891 162.96296296296273,37.925531813037374 164.1975308641973,37.925531813037374 165.43209876543185,37.4468084036891 166.6666666666664,37.4468084036891 167.90123456790096,37.4468084036891 169.1358024691355,37.4468084036891 170.37037037037007,37.4468084036891 171.60493827160462,37.4468084036891 172.83950617283918,37.4468084036891 174.07407407407374,37.4468084036891 175.3086419753083,37.4468084036891 176.54320987654285,37.4468084036891 177.7777777777774,37.44680888241254 179.01234567901196,37.44680888241254 180.2469135802465,37.44680888241254 181.48148148148107,37.44680888241254 182.71604938271562,37.44680888241254 183.95061728395018,37.45159563778282 185.18518518518474,37.45159563778282 186.4197530864193,37.45159563778282 187.65432098765385,37.45159563778282 188.8888888888884,37.45159563778282 190.12345679012296,42.23404249717062 191.3580246913575,47.069148931586426 192.59259259259207,47.069148931586426 193.82716049382663,47.069148931586426 195.06172839506118,47.5 196.29629629629574,47.5 197.5308641975303,47.069148931586426 198.76543209876485,47.069148931586426 199.9999999999994,NaN " stroke="#fe4134" stroke-width="2" stroke-opacity="1" fill="none" fill-opacity="0" stroke-linejoin="round" vector-effect="non-scaling-stroke"/></svg>