<svg xmlns="http://www.w3.org/2000/svg" width="200" height="50" viewBox="0 0 200 50" shape-rendering="auto"><polyline points="0,45.03583038038018 1.2345679012345678,45.01604621309373 2.4691358024691357,45.01604621309373 3.7037037037037033,45.01604621309373 4.938271604938271,45.01604621309373 6.172839506172839,42.24326059050058 7.407407407407407,42.24326059050058 8.641975308641975,42.24326059050058 9.876543209876543,42.24326059050058 11.11111111111111,42.30102695763794 12.345679012345679,42.87869062901155 13.580246913580247,43.98202824133496 14.814814814814815,43.98202824133496 16.049382716049383,43.98202824133496 17.28395061728395,43.98202824133496 18.518518518518515,43.98202824133496 19.75308641975308,43.98202824133496 20.987654320987648,43.98202824133496 22.222222222222214,43.98202824133496 23.45679012345678,43.98202824133496 24.691358024691347,43.97625160462131 25.925925925925913,43.97625160462131 27.16049382716048,41.5500641848524 28.395061728395046,41.5500641848524 29.629629629629612,41.5500641848524 30.86419753086418,41.5500641848524 32.098765432098745,42.87869062901155 33.333333333333314,43.456354300385044 34.567901234567884,43.456354300385044 35.802469135802454,47.5 37.037037037037024,40.16944801026953 38.271604938271594,7.5834403080873685 39.50617283950616,2.500000000000002 40.74074074074073,2.5924261874197354 41.9753086419753,3.545571245186189 43.20987654320987,3.551347881899834 44.44444444444444,3.5975609756097646 45.67901234567901,3.713093709884463 46.91358024691358,4.868421052631575 48.14814814814815,5.503851091142544 49.38271604938272,5.561617458279893 50.61728395061729,5.410731707317142 51.85185185185186,5.411424903722683 53.08641975308643,5.411424903722683 54.320987654321,4.75866495507065 55.55555555555557,4.874197689345348 56.79012345679014,4.874197689345348 58.02469135802471,4.874197689345348 59.25925925925928,4.874197689345348 60.49382716049385,4.874197689345348 61.72839506172842,4.874197689345348 62.96296296296299,4.874197689345348 64.19753086419756,4.874197689345348 65.43209876543213,5.041720154043622 66.6666666666667,6.659178433889656 67.90123456790127,7.641206675224719 69.13580246913584,10.529525032092433 70.37037037037041,17.46801668806159 71.60493827160498,20.523106546854994 72.83950617283955,21.562901155327406 74.07407407407412,22.08886392811292 75.30864197530869,22.891527599486565 76.54320987654326,23.007060333761267 77.77777777777783,23.007060333761267 79.0123456790124,25.028883183568617 80.24691358024697,25.086649550706092 81.48148148148154,25.14441591784344 82.71604938271611,25.433247753530186 83.95061728395068,27.91720154043646 85.18518518518525,28.610397946084777 86.41975308641982,30.054557124518638 87.65432098765439,29.30359435173296 88.88888888888896,30.11232349165598 90.12345679012353,30.11232349165598 91.3580246913581,30.11232349165598 92.59259259259267,30.11232349165598 93.82716049382724,30.11232349165598 95.0617283950618,36.46662387676503 96.29629629629638,30.11232349165598 97.53086419753095,30.11232349165598 98.76543209876552,29.245827984595614 100.00000000000009,29.245827984595614 101.23456790123466,29.30359435173296 102.46913580246922,29.419127086007666 103.7037037037038,30.747753530166822 104.93827160493836,29.245827984595614 106.17283950617293,29.245827984595614 107.4074074074075,29.245827984595614 108.64197530864207,29.30359435173296 109.87654320987664,29.30359435173296 111.11111111111121,29.453786906290045 112.34567901234578,29.453786906290045 113.58024691358035,29.511553273427523 114.81481481481492,29.511553273427523 116.0493827160495,29.511553273427523 117.28395061728406,29.592426187419715 118.51851851851863,29.592426187419715 119.7530864197532,29.511553273427523 120.98765432098777,29.511553273427523 122.22222222222234,29.511553273427523 123.45679012345691,29.511553273427523 124.69135802469148,29.65019255455706 125.92592592592605,30.11232349165598 127.16049382716062,30.11232349165598 128.39506172839518,30.11232349165598 129.62962962962973,30.17008985879333 130.8641975308643,30.17008985879333 132.09876543209884,30.17008985879333 133.3333333333334,30.689987163029475 134.56790123456796,39.75930680359431 135.8024691358025,33.63607188703467 137.03703703703707,33.63607188703467 138.27160493827162,33.63607188703467 139.50617283950618,33.63607188703467 140.74074074074073,30.921052631579 141.9753086419753,33.57830551989732 143.20987654320984,33.63607188703467 144.4444444444444,33.63607188703467 145.67901234567896,33.63607188703467 146.9135802469135,33.63607188703467 148.14814814814807,33.63607188703467 149.38271604938262,33.63607188703467 150.61728395061718,30.926234274711152 151.85185185185173,29.933825417201486 153.0864197530863,29.939024390243933 154.32098765432085,29.996790757381284 155.5555555555554,30.689987163029475 156.79012345678996,31.38318356867779 158.0246913580245,31.325417201540443 159.25925925925907,31.325417201540443 160.49382716049362,33.63607188703467 161.72839506172818,33.63607188703467 162.96296296296273,33.63607188703467 164.1975308641973,33.63607188703467 165.43209876543185,33.63607188703467 166.6666666666664,33.63607188703467 167.90123456790096,33.63607188703467 169.1358024691355,33.63607188703467 170.37037037037007,33.63607188703467 171.60493827160462,33.63607188703467 172.83950617283918,33.63607188703467 174.07407407407374,33.63607188703467 175.3086419753083,33.63607188703467 176.54320987654285,33.63607188703467 177.7777777777774,33.63607188703467 179.01234567901196,33.63607188703467 180.2469135802465,33.63607188703467 181.48148148148107,33.63607188703467 182.71604938271562,33.63607188703467 183.95061728395018,33.63607188703467 185.18518518518474,33.63607188703467 186.4197530864193,33.63607188703467 187.65432098765385,33.63607188703467 188.8888888888884,33.63607188703467 190.12345679012296,35.426829268292614 191.3580246913575,35.426829268292614 192.59259259259207,35.426829268292614 193.82716049382663,35.426829268292614 195.06172839506118,41.52695763799743 196.29629629629574,41.52695763799743 197.5308641975303,41.52695763799743 198.76543209876485,41.52695763799743 199.9999999999994,NaN " stroke="#00d181" stroke-width="2" stroke-opacity="1" fill="none" fill-opacity="0" stroke-linejoin="round" vector-effect="non-scaling-stroke"/></svg>