<svg xmlns="http://www.w3.org/2000/svg" width="200" height="50" viewBox="0 0 200 50" shape-rendering="auto"><polyline points="0,9.125708884688084 1.2345679012345678,2.500000000000002 2.4691358024691357,9.220226843100189 3.7037037037037033,12.793005671077498 4.938271604938271,18.153024574669182 6.172839506172839,27.934782608695652 7.407407407407407,31.337429111531186 8.641975308641975,30.486767485822316 9.876543209876543,33.88941398865784 11.11111111111111,33.03875236294895 12.345679012345679,21.6398865784499 13.580246913580247,24.191871455576557 14.814814814814815,26.483553875236293 16.049382716049383,25.383648393194697 17.28395061728395,23.852457466918718 18.518518518518515,19.60680529300567 19.75308641975308,19.61531190926276 20.987654320987648,21.130340264650282 22.222222222222214,19.60680529300567 23.45679012345678,25.042533081285445 24.691358024691347,21.980151228733455 25.925925925925913,24.191871455576557 27.16049382716048,25.89319470699433 28.395061728395046,26.74385633270321 29.629629629629612,27.5945179584121 30.86419753086418,29.01086956521739 32.098765432098745,29.01086956521739 33.333333333333314,29.01086956521739 34.567901234567884,29.636105860113425 35.802469135802454,30.503780718336486 37.037037037037024,31.039697542533084 38.271604938271594,32.188941398865786 39.50617283950616,35.600945179584116 40.74074074074073,38.993383742911156 41.9753086419753,38.168241965973536 43.20987654320987,36.4413988657845 44.44444444444444,36.4413988657845 45.67901234567901,33.89792060491493 46.91358024691358,38.14357277882797 48.14814814814815,45.79867674858223 49.38271604938272,46.2069943289225 50.61728395061729,46.63743319470699 51.85185185185186,40.35529300567107 53.08641975308643,42.400708884688086 54.320987654321,46.22485822306238 55.55555555555557,47.5 56.79012345679014,47.5 58.02469135802471,44.10586011342155 59.25925925925928,44.097353497164455 60.49382716049385,43.672022684310015 61.72839506172842,43.672022684310015 62.96296296296299,43.16162570888468 64.19753086419756,42.39603024574669 65.43209876543213,42.39603024574669 66.6666666666667,41.970699432892246 67.90123456790127,38.5139199175116 69.13580246913584,38.14272211720227 70.37037037037041,38.14272211720227 71.60493827160498,34.32325141776937 72.83950617283955,34.32325141776937 74.07407407407412,34.32325141776937 75.30864197530869,34.32325141776937 76.54320987654326,34.32325141776937 77.77777777777783,34.32325141776937 79.0123456790124,34.32325141776937 80.24691358024697,34.31474480151228 81.48148148148154,34.31474480151228 82.71604938271611,32.528355387523625 83.95061728395068,36.4413988657845 85.18518518518525,31.032892249527418 86.41975308641982,32.18809073724007 87.65432098765439,31.032892249527418 88.88888888888896,31.032892249527418 90.12345679012353,32.18809073724007 91.3580246913581,32.18809073724007 92.59259259259267,32.18809073724007 93.82716049382724,30.486767485822316 95.0617283950618,29.636105860113425 96.29629629629638,29.8062381852552 97.53086419753095,29.8062381852552 98.76543209876552,29.823251417769377 100.00000000000009,30.486767485822316 101.23456790123466,30.486767485822316 102.46913580246922,30.486767485822316 103.7037037037038,30.58034026465029 104.93827160493836,30.58034026465029 106.17283950617293,30.58034026465029 107.4074074074075,30.58034026465029 108.64197530864207,30.486767485822316 109.87654320987664,30.486767485822316 111.11111111111121,30.486767485822316 112.34567901234578,32.444139886578455 113.58024691358035,30.572684310018907 114.81481481481492,31.3382797731569 116.0493827160495,30.572684310018907 117.28395061728406,30.572684310018907 118.51851851851863,30.486767485822316 119.7530864197532,30.486767485822316 120.98765432098777,29.01086956521739 122.22222222222234,29.042344045368612 123.45679012345691,29.01086956521739 124.69135802469148,29.01086956521739 125.92592592592605,29.01086956521739 127.16049382716062,25.382797731569 128.39506172839518,25.382797731569 129.62962962962973,16.87618147448015 130.8641975308643,11.43194706994328 132.09876543209884,8.879962192816635 133.3333333333334,9.220226843100189 134.56790123456796,9.220226843100189 135.8024691358025,9.220226843100189 137.03703703703707,10.070888468809065 138.27160493827162,10.070888468809065 139.50617283950618,12.622873345935723 140.74074074074073,15.174858223062376 141.9753086419753,15.174858223062376 143.20987654320984,16.87618147448015 144.4444444444444,17.726843100189036 145.67901234567896,17.726843100189036 146.9135802469135,17.726843100189036 148.14814814814807,18.49243856332703 149.38271604938262,17.726843100189036 150.61728395061718,17.726843100189036 151.85185185185173,17.726843100189036 153.0864197530863,17.726843100189036 154.32098765432085,17.726843100189036 155.5555555555554,16.87618147448015 156.79012345678996,17.301512287334592 158.0246913580245,16.87618147448015 159.25925925925907,16.87618147448015 160.49382716049362,16.884688090737242 161.72839506172818,21.980151228733455 162.96296296296273,23.086011342155007 164.1975308641973,24.021739130434778 165.43209876543185,23.094517958412098 166.6666666666664,23.094517958412098 167.90123456790096,23.094517958412098 169.1358024691355,23.094517958412098 170.37037037037007,23.094517958412098 171.60493827160462,23.103024574669185 172.83950617283918,23.103024574669185 174.07407407407374,23.103024574669185 175.3086419753083,23.103024574669185 176.54320987654285,23.086011342155007 177.7777777777774,23.086011342155007 179.01234567901196,23.086011342155007 180.2469135802465,23.086011342155007 181.48148148148107,23.681474480151227 182.71604938271562,23.766540642722116 183.95061728395018,23.681474480151227 185.18518518518474,23.681474480151227 186.4197530864193,23.681474480151227 187.65432098765385,24.106805293005667 188.8888888888884,24.727788279773154 190.12345679012296,25.382797731569 191.3580246913575,24.107655954631387 192.59259259259207,24.53213610586011 193.82716049382663,23.681474480151227 195.06172839506118,23.681474480151227 196.29629629629574,23.681474480151227 197.5308641975303,23.681474480151227 198.76543209876485,23.681474480151227 199.9999999999994,NaN " stroke="#fe4134" stroke-width="2" stroke-opacity="1" fill="none" fill-opacity="0" stroke-linejoin="round" vector-effect="non-scaling-stroke"/></svg>