<svg xmlns="http://www.w3.org/2000/svg" width="200" height="50" viewBox="0 0 200 50" shape-rendering="auto"><polyline points="0,4.6540488073000645 1.2345679012345678,2.500000000000002 2.4691358024691357,2.500007944366436 3.7037037037037033,2.500007944366436 4.938271604938271,2.500009955099399 6.172839506172839,4.466372540916617 7.407407407407407,4.466372540916617 8.641975308641975,4.466374512223301 9.876543209876543,4.466382476302875 11.11111111111111,4.466382476302875 12.345679012345679,4.466382476302875 13.580246913580247,4.466394442135094 14.814814814814815,4.466394442135094 16.049382716049383,4.466400395481704 17.28395061728395,4.466404397234491 18.518518518518515,4.466404397234491 19.75308641975308,4.466404397234491 20.987654320987648,4.466408359561138 22.222222222222214,4.4664242877201445 23.45679012345678,4.4664242877201445 24.691358024691347,4.4664242877201445 25.925925925925913,4.466432271512578 27.16049382716048,4.466432271512578 28.395061728395046,4.466436233839225 29.629629629629612,6.1025611478167185 30.86419753086418,6.1025611478167185 32.098765432098745,6.10256712087633 33.333333333333314,4.466569671596609 34.567901234567884,13.98778637927366 35.802469135802454,4.466569671596609 37.037037037037024,4.466569671596609 38.271604938271594,4.4665776356760425 39.50617283950616,4.4665776356760425 40.74074074074073,4.4665776356760425 41.9753086419753,4.466569671596609 43.20987654320987,4.466569671596609 44.44444444444444,4.466569671596609 45.67901234567901,4.466569671596609 46.91358024691358,4.466591572815226 48.14814814814815,4.466591572815226 49.38271604938272,4.466591572815226 50.61728395061729,4.466599556607659 51.85185185185186,4.466599556607659 53.08641975308643,4.466605509954269 54.320987654321,4.466607520687233 55.55555555555557,4.466607520687233 56.79012345679014,4.466607520687233 58.02469135802471,4.466621438113276 59.25925925925928,4.72264640704605 60.49382716049385,4.72264640704605 61.72839506172842,4.72264640704605 62.96296296296299,4.72265835316527 64.19753086419756,4.72265835316527 65.43209876543213,4.722662335205057 66.6666666666667,4.72266434593802 67.90123456790127,4.722678263364064 69.13580246913584,4.722678263364064 70.37037037037041,4.722678263364064 71.60493827160498,4.722700164582541 72.83950617283955,4.722700164582541 74.07407407407412,4.722700164582541 75.30864197530869,4.722710119681937 76.54320987654326,4.722716092741548 77.77777777777783,4.722716092741548 79.0123456790124,8.073863986181049 80.24691358024697,8.115263400302355 81.48148148148154,8.119206013903728 82.71604938271611,8.119206013903728 83.95061728395068,8.119225924102382 85.18518518518525,8.119225924102382 86.41975308641982,8.119225924102382 87.65432098765439,8.119237870221601 88.88888888888896,8.119237870221601 90.12345679012353,10.045172777891846 91.3580246913581,10.045176759931493 92.59259259259267,10.045190697070677 93.82716049382724,17.93039996094247 95.0617283950618,17.93039996094247 96.29629629629638,17.930417880121304 97.53086419753095,17.930417880121304 98.76543209876552,17.930417880121304 100.00000000000009,17.930425844200876 101.23456790123466,17.969830098709124 102.46913580246922,17.969830098709124 103.7037037037038,17.969832109442088 104.93827160493836,17.969832109442088 106.17283950617293,17.989537193656517 107.4074074074075,17.9895391649632 108.64197530864207,17.989559075161996 109.87654320987664,17.989559075161996 111.11111111111121,17.989559075161996 112.34567901234578,17.989567058954428 113.58024691358035,17.989567058954428 114.81481481481492,17.989575003320862 116.0493827160495,17.989577014053822 117.28395061728406,17.98959093147987 118.51851851851863,17.98959093147987 119.7530864197532,17.98959093147987 120.98765432098777,17.989610841678523 122.22222222222234,17.989610841678523 123.45679012345691,17.989610841678523 124.69135802469148,17.98962081649092 125.92592592592605,17.98962081649092 127.16049382716062,18.00530961936883 128.39506172839518,18.005311610388656 129.62962962962973,18.005311610388656 130.8641975308643,18.005323556507875 132.09876543209884,18.0092522329702 133.3333333333334,25.027102472123186 134.56790123456796,39.61477279723609 135.8024691358025,39.61477476854292 137.03703703703707,39.61478275233549 138.27160493827162,39.6147887056821 139.50617283950618,39.61477279723609 140.74074074074073,39.61477279723609 141.9753086419753,39.61477279723609 143.20987654320984,39.61477279723609 144.4444444444444,39.61477279723609 145.67901234567896,45.528693199309025 146.9135802469135,45.528693199309025 148.14814814814807,45.528693199309025 149.38271604938262,45.72582389909122 150.61728395061718,47.5 151.85185185185173,45.528693199309025 153.0864197530863,45.528693199309025 154.32098765432085,45.528693199309025 155.5555555555554,45.528693199309025 156.79012345678996,45.528693199309025 158.0246913580245,45.528693199309025 159.25925925925907,45.528693199309025 160.49382716049362,45.528693199309025 161.72839506172818,45.528693199309025 162.96296296296273,45.528693199309025 164.1975308641973,45.528693199309025 165.43209876543185,45.528693199309025 166.6666666666664,45.528693199309025 167.90123456790096,45.528693199309025 169.1358024691355,45.528693199309025 170.37037037037007,45.528693199309025 171.60493827160462,45.528693199309025 172.83950617283918,45.528693199309025 174.07407407407374,45.528693199309025 175.3086419753083,45.528693199309025 176.54320987654285,45.528693199309025 177.7777777777774,45.528693199309025 179.01234567901196,45.528693219022024 180.2469135802465,45.528693219022024 181.48148148148107,45.528693219022024 182.71604938271562,45.528693199309025 183.95061728395018,45.528693199309025 185.18518518518474,45.528693199309025 186.4197530864193,45.528693199309025 187.65432098765385,45.528693199309025 188.8888888888884,45.528693199309025 190.12345679012296,45.76525001539195 191.3580246913575,45.76525001539195 192.59259259259207,45.76525001539195 193.82716049382663,45.76525001539195 195.06172839506118,45.76525001539195 196.29629629629574,45.76525001539195 197.5308641975303,45.76525001539195 198.76543209876485,45.76525003510495 199.9999999999994,NaN " stroke="#fe4134" stroke-width="2" stroke-opacity="1" fill="none" fill-opacity="0" stroke-linejoin="round" vector-effect="non-scaling-stroke"/></svg>