<svg xmlns="http://www.w3.org/2000/svg" width="200" height="50" viewBox="0 0 200 50" shape-rendering="auto"><polyline points="0,47.5 1.2345679012345678,47.5 2.4691358024691357,33.05589087397393 3.7037037037037033,33.05589087397393 4.938271604938271,33.05589087397393 6.172839506172839,2.500000000000002 7.407407407407407,2.500000000000002 8.641975308641975,2.500000000000002 9.876543209876543,2.500000000000002 11.11111111111111,2.500000000000002 12.345679012345679,8.611178174794789 13.580246913580247,8.611178174794789 14.814814814814815,8.611178174794789 16.049382716049383,8.611178174794789 17.28395061728395,8.611178174794789 18.518518518518515,8.611178174794789 19.75308641975308,8.611178174794789 20.987654320987648,9.018590053114417 22.222222222222214,9.018590053114417 23.45679012345678,9.018590053114417 24.691358024691347,9.018590053114417 25.925925925925913,9.018590053114417 27.16049382716048,10.64823756639305 28.395061728395046,10.64823756639305 29.629629629629612,10.64823756639305 30.86419753086418,10.64823756639305 32.098765432098745,10.64823756639305 33.333333333333314,10.64823756639305 34.567901234567884,10.64823756639305 35.802469135802454,10.64823756639305 37.037037037037024,10.64823756639305 38.271604938271594,10.64823756639305 39.50617283950616,10.64823756639305 40.74074074074073,10.64823756639305 41.9753086419753,10.64823756639305 43.20987654320987,10.64823756639305 44.44444444444444,10.64823756639305 45.67901234567901,10.64823756639305 46.91358024691358,10.64823756639305 48.14814814814815,10.64823756639305 49.38271604938272,10.64823756639305 50.61728395061729,10.64823756639305 51.85185185185186,10.64823756639305 53.08641975308643,10.64823756639305 54.320987654321,10.64823756639305 55.55555555555557,10.64823756639305 56.79012345679014,10.64823756639305 58.02469135802471,10.64823756639305 59.25925925925928,10.64823756639305 60.49382716049385,10.64823756639305 61.72839506172842,10.64823756639305 62.96296296296299,10.64823756639305 64.19753086419756,10.64823756639305 65.43209876543213,10.64823756639305 66.6666666666667,10.64823756639305 67.90123456790127,10.64823756639305 69.13580246913584,10.64823756639305 70.37037037037041,10.64823756639305 71.60493827160498,10.64823756639305 72.83950617283955,10.64823756639305 74.07407407407412,10.64823756639305 75.30864197530869,10.64823756639305 76.54320987654326,10.64823756639305 77.77777777777783,10.64823756639305 79.0123456790124,10.64823756639305 80.24691358024697,10.64823756639305 81.48148148148154,10.64823756639305 82.71604938271611,10.64823756639305 83.95061728395068,10.64823756639305 85.18518518518525,10.64823756639305 86.41975308641982,10.64823756639305 87.65432098765439,10.64823756639305 88.88888888888896,10.64823756639305 90.12345679012353,10.64823756639305 91.3580246913581,10.64823756639305 92.59259259259267,10.64823756639305 93.82716049382724,10.64823756639305 95.0617283950618,10.64823756639305 96.29629629629638,10.64823756639305 97.53086419753095,10.64823756639305 98.76543209876552,10.64823756639305 100.00000000000009,10.64823756639305 101.23456790123466,10.64823756639305 102.46913580246922,18.7964751327861 103.7037037037038,18.7964751327861 104.93827160493836,18.7964751327861 106.17283950617293,18.7964751327861 107.4074074074075,18.7964751327861 108.64197530864207,18.7964751327861 109.87654320987664,18.7964751327861 111.11111111111121,18.7964751327861 112.34567901234578,18.7964751327861 113.58024691358035,18.7964751327861 114.81481481481492,18.7964751327861 116.0493827160495,18.7964751327861 117.28395061728406,18.7964751327861 118.51851851851863,18.7964751327861 119.7530864197532,18.7964751327861 120.98765432098777,18.7964751327861 122.22222222222234,18.7964751327861 123.45679012345691,18.7964751327861 124.69135802469148,18.7964751327861 125.92592592592605,18.7964751327861 127.16049382716062,18.7964751327861 128.39506172839518,18.7964751327861 129.62962962962973,18.7964751327861 130.8641975308643,18.7964751327861 132.09876543209884,18.7964751327861 133.3333333333334,18.7964751327861 134.56790123456796,18.7964751327861 135.8024691358025,18.7964751327861 137.03703703703707,18.7964751327861 138.27160493827162,18.7964751327861 139.50617283950618,18.7964751327861 140.74074074074073,18.7964751327861 141.9753086419753,18.7964751327861 143.20987654320984,18.7964751327861 144.4444444444444,18.7964751327861 145.67901234567896,18.7964751327861 146.9135802469135,18.7964751327861 148.14814814814807,18.7964751327861 149.38271604938262,18.7964751327861 150.61728395061718,18.7964751327861 151.85185185185173,18.7964751327861 153.0864197530863,9.018590053114417 154.32098765432085,9.018590053114417 155.5555555555554,9.018590053114417 156.79012345678996,9.018590053114417 158.0246913580245,9.018590053114417 159.25925925925907,9.018590053114417 160.49382716049362,9.018590053114417 161.72839506172818,9.018590053114417 162.96296296296273,9.018590053114417 164.1975308641973,9.018590053114417 165.43209876543185,9.018590053114417 166.6666666666664,9.018590053114417 167.90123456790096,9.018590053114417 169.1358024691355,9.018590053114417 170.37037037037007,9.018590053114417 171.60493827160462,9.018590053114417 172.83950617283918,9.018590053114417 174.07407407407374,9.018590053114417 175.3086419753083,9.018590053114417 176.54320987654285,9.018590053114417 177.7777777777774,9.018590053114417 179.01234567901196,9.018590053114417 180.2469135802465,9.018590053114417 181.48148148148107,9.018590053114417 182.71604938271562,9.018590053114417 183.95061728395018,9.018590053114417 185.18518518518474,9.018590053114417 186.4197530864193,9.018590053114417 187.65432098765385,9.018590053114417 188.8888888888884,9.018590053114417 190.12345679012296,9.018590053114417 191.3580246913575,9.018590053114417 192.59259259259207,9.018590053114417 193.82716049382663,9.018590053114417 195.06172839506118,9.018590053114417 196.29629629629574,9.018590053114417 197.5308641975303,9.018590053114417 198.76543209876485,9.018590053114417 199.9999999999994,NaN " stroke="#00d181" stroke-width="2" stroke-opacity="1" fill="none" fill-opacity="0" stroke-linejoin="round" vector-effect="non-scaling-stroke"/></svg>