<svg xmlns="http://www.w3.org/2000/svg" width="200" height="50" viewBox="0 0 200 50" shape-rendering="auto"><polyline points="0,2.8778360891896893 1.2345679012345678,2.500000000000002 2.4691358024691357,2.500000000000002 3.7037037037037033,2.500000000000002 4.938271604938271,2.500000000000002 6.172839506172839,2.500000000000002 7.407407407407407,2.500000000000002 8.641975308641975,2.500000000000002 9.876543209876543,31.167102254165286 11.11111111111111,31.167102254165286 12.345679012345679,31.167102254165286 13.580246913580247,31.167102254165286 14.814814814814815,31.167102254165286 16.049382716049383,31.167102254165286 17.28395061728395,31.167102254165286 18.518518518518515,31.167102254165286 19.75308641975308,31.167102254165286 20.987654320987648,31.167102254165286 22.222222222222214,31.167102254165286 23.45679012345678,31.167102254165286 24.691358024691347,31.167102254165286 25.925925925925913,31.167102254165286 27.16049382716048,31.167102254165286 28.395061728395046,31.167102254165286 29.629629629629612,31.167102254165286 30.86419753086418,31.167102254165286 32.098765432098745,31.167102254165286 33.333333333333314,31.167102254165286 34.567901234567884,31.167102254165286 35.802469135802454,31.167102254165286 37.037037037037024,31.167102254165286 38.271604938271594,31.167102254165286 39.50617283950616,31.167102254165286 40.74074074074073,31.167102254165286 41.9753086419753,31.167102254165286 43.20987654320987,31.167102254165286 44.44444444444444,31.167102254165286 45.67901234567901,31.167102254165286 46.91358024691358,31.167102254165286 48.14814814814815,31.167102254165286 49.38271604938272,31.167102254165286 50.61728395061729,31.167102254165286 51.85185185185186,31.167102254165286 53.08641975308643,31.167102254165286 54.320987654321,31.167102254165286 55.55555555555557,31.167102254165286 56.79012345679014,31.167102254165286 58.02469135802471,31.167102254165286 59.25925925925928,31.167102254165286 60.49382716049385,31.167102254165286 61.72839506172842,31.167102254165286 62.96296296296299,31.167102254165286 64.19753086419756,31.167102254165286 65.43209876543213,31.167102254165286 66.6666666666667,31.167102254165286 67.90123456790127,31.167102254165286 69.13580246913584,31.167102254165286 70.37037037037041,31.167102254165286 71.60493827160498,31.167102254165286 72.83950617283955,31.167102254165286 74.07407407407412,31.167102254165286 75.30864197530869,31.167102254165286 76.54320987654326,31.167102254165286 77.77777777777783,31.167102254165286 79.0123456790124,31.167102254165286 80.24691358024697,31.167102254165286 81.48148148148154,31.167102254165286 82.71604938271611,31.167102254165286 83.95061728395068,31.167102254165286 85.18518518518525,31.167102254165286 86.41975308641982,31.167102254165286 87.65432098765439,31.167102254165286 88.88888888888896,31.167102254165286 90.12345679012353,31.167102254165286 91.3580246913581,31.167102254165286 92.59259259259267,31.167102254165286 93.82716049382724,31.167102254165286 95.0617283950618,31.167102254165286 96.29629629629638,31.167102254165286 97.53086419753095,31.167102254165286 98.76543209876552,31.167102254165286 100.00000000000009,31.167102254165286 101.23456790123466,31.167102254165286 102.46913580246922,31.167102254165286 103.7037037037038,31.167102254165286 104.93827160493836,31.167102254165286 106.17283950617293,31.167102254165286 107.4074074074075,31.167102254165286 108.64197530864207,31.167102254165286 109.87654320987664,31.167102254165286 111.11111111111121,31.167102254165286 112.34567901234578,31.167102254165286 113.58024691358035,31.167102254165286 114.81481481481492,31.167102254165286 116.0493827160495,31.167102254165286 117.28395061728406,31.167102254165286 118.51851851851863,31.167102254165286 119.7530864197532,31.167102254165286 120.98765432098777,31.167102254165286 122.22222222222234,31.167102254165286 123.45679012345691,31.167102254165286 124.69135802469148,31.167102254165286 125.92592592592605,31.167102254165286 127.16049382716062,31.167102254165286 128.39506172839518,31.167102254165286 129.62962962962973,31.167102254165286 130.8641975308643,31.167102254165286 132.09876543209884,31.167102254165286 133.3333333333334,31.167102254165286 134.56790123456796,31.167102254165286 135.8024691358025,31.167102254165286 137.03703703703707,31.167102254165286 138.27160493827162,31.167102254165286 139.50617283950618,31.167102254165286 140.74074074074073,31.167102254165286 141.9753086419753,31.167102254165286 143.20987654320984,31.167102254165286 144.4444444444444,31.167102254165286 145.67901234567896,31.167102254165286 146.9135802469135,31.167102254165286 148.14814814814807,31.167102254165286 149.38271604938262,31.167102254165286 150.61728395061718,31.167102254165286 151.85185185185173,31.167102254165286 153.0864197530863,47.5 154.32098765432085,47.5 155.5555555555554,47.5 156.79012345678996,47.5 158.0246913580245,47.5 159.25925925925907,47.5 160.49382716049362,47.5 161.72839506172818,47.5 162.96296296296273,47.5 164.1975308641973,47.5 165.43209876543185,31.167102254165286 166.6666666666664,31.167102254165286 167.90123456790096,31.167102254165286 169.1358024691355,31.167102254165286 170.37037037037007,31.167102254165286 171.60493827160462,31.167102254165286 172.83950617283918,31.167102254165286 174.07407407407374,31.167102254165286 175.3086419753083,38.51764129369467 176.54320987654285,31.167102254165286 177.7777777777774,31.167102254165286 179.01234567901196,31.167102254165286 180.2469135802465,31.167102254165286 181.48148148148107,31.167102254165286 182.71604938271562,31.167102254165286 183.95061728395018,31.167102254165286 185.18518518518474,31.167102254165286 186.4197530864193,31.167102254165286 187.65432098765385,31.167102254165286 188.8888888888884,31.167102254165286 190.12345679012296,31.167102254165286 191.3580246913575,31.1744527932048 192.59259259259207,31.1744527932048 193.82716049382663,31.1744527932048 195.06172839506118,32.63721006207116 196.29629629629574,31.167102254165286 197.5308641975303,31.167102254165286 198.76543209876485,31.167102254165286 199.9999999999994,NaN " stroke="#fe4134" stroke-width="2" stroke-opacity="1" fill="none" fill-opacity="0" stroke-linejoin="round" vector-effect="non-scaling-stroke"/></svg>