<svg xmlns="http://www.w3.org/2000/svg" width="200" height="50" viewBox="0 0 200 50" shape-rendering="auto"><polyline points="0,27.55191995673475 1.2345679012345678,27.50000000000082 2.4691358024691357,6.6666666666673 3.7037037037037033,6.6666666666673 4.938271604938271,6.6666666666673 6.172839506172839,6.6666666666673 7.407407407407407,6.6666666666673 8.641975308641975,2.500000000000002 9.876543209876543,2.500000000000002 11.11111111111111,2.500000000000002 12.345679012345679,2.500000000000002 13.580246913580247,2.500000000000002 14.814814814814815,2.500000000000002 16.049382716049383,2.500000000000002 17.28395061728395,2.500000000000002 18.518518518518515,2.500000000000002 19.75308641975308,2.500000000000002 20.987654320987648,2.500000000000002 22.222222222222214,2.500000000000002 23.45679012345678,2.500000000000002 24.691358024691347,6.6666666666673 25.925925925925913,6.6666666666673 27.16049382716048,6.6666666666673 28.395061728395046,6.6666666666673 29.629629629629612,6.6666666666673 30.86419753086418,44.166666666667055 32.098765432098745,44.166666666667055 33.333333333333314,44.166666666667055 34.567901234567884,44.166666666667055 35.802469135802454,44.166666666667055 37.037037037037024,44.166666666667055 38.271604938271594,44.166666666667055 39.50617283950616,44.166666666667055 40.74074074074073,44.166666666667055 41.9753086419753,44.166666666667055 43.20987654320987,44.166666666667055 44.44444444444444,44.166666666667055 45.67901234567901,44.166666666667055 46.91358024691358,44.166666666667055 48.14814814814815,44.166666666667055 49.38271604938272,44.166666666667055 50.61728395061729,44.166666666667055 51.85185185185186,44.166666666667055 53.08641975308643,44.166666666667055 54.320987654321,44.166666666667055 55.55555555555557,44.166666666667055 56.79012345679014,44.166666666667055 58.02469135802471,44.166666666667055 59.25925925925928,44.166666666667055 60.49382716049385,44.166666666667055 61.72839506172842,44.166666666667055 62.96296296296299,44.166666666667055 64.19753086419756,44.166666666667055 65.43209876543213,44.166666666667055 66.6666666666667,44.166666666667055 67.90123456790127,44.166666666667055 69.13580246913584,44.166666666667055 70.37037037037041,44.166666666667055 71.60493827160498,44.166666666667055 72.83950617283955,44.166666666667055 74.07407407407412,44.166666666667055 75.30864197530869,44.166666666667055 76.54320987654326,44.166666666667055 77.77777777777783,44.166666666667055 79.0123456790124,44.166666666667055 80.24691358024697,44.166666666667055 81.48148148148154,47.5 82.71604938271611,47.5 83.95061728395068,47.5 85.18518518518525,47.5 86.41975308641982,47.5 87.65432098765439,47.5 88.88888888888896,47.5 90.12345679012353,47.5 91.3580246913581,47.5 92.59259259259267,47.5 93.82716049382724,47.5 95.0617283950618,47.5 96.29629629629638,47.5 97.53086419753095,47.5 98.76543209876552,47.5 100.00000000000009,47.5 101.23456790123466,47.5 102.46913580246922,47.5 103.7037037037038,47.5 104.93827160493836,47.5 106.17283950617293,47.5 107.4074074074075,47.5 108.64197530864207,47.5 109.87654320987664,47.5 111.11111111111121,47.5 112.34567901234578,47.5 113.58024691358035,47.5 114.81481481481492,47.5 116.0493827160495,47.5 117.28395061728406,47.5 118.51851851851863,47.5 119.7530864197532,47.5 120.98765432098777,47.5 122.22222222222234,47.5 123.45679012345691,47.5 124.69135802469148,47.5 125.92592592592605,47.5 127.16049382716062,47.5 128.39506172839518,47.5 129.62962962962973,47.5 130.8641975308643,47.5 132.09876543209884,47.5 133.3333333333334,47.5 134.56790123456796,47.5 135.8024691358025,47.5 137.03703703703707,47.5 138.27160493827162,47.5 139.50617283950618,47.5 140.74074074074073,47.5 141.9753086419753,47.5 143.20987654320984,47.5 144.4444444444444,47.5 145.67901234567896,47.5 146.9135802469135,47.5 148.14814814814807,47.5 149.38271604938262,47.5 150.61728395061718,47.5 151.85185185185173,47.5 153.0864197530863,47.5 154.32098765432085,47.5 155.5555555555554,47.5 156.79012345678996,47.5 158.0246913580245,47.5 159.25925925925907,47.5 160.49382716049362,47.5 161.72839506172818,47.5 162.96296296296273,47.5 164.1975308641973,47.5 165.43209876543185,47.5 166.6666666666664,47.5 167.90123456790096,47.5 169.1358024691355,47.5 170.37037037037007,47.5 171.60493827160462,47.5 172.83950617283918,47.5 174.07407407407374,47.5 175.3086419753083,47.5 176.54320987654285,47.5 177.7777777777774,47.5 179.01234567901196,47.5 180.2469135802465,47.5 181.48148148148107,47.5 182.71604938271562,47.5 183.95061728395018,47.5 185.18518518518474,47.5 186.4197530864193,47.5 187.65432098765385,47.5 188.8888888888884,47.5 190.12345679012296,47.5 191.3580246913575,47.5 192.59259259259207,47.5 193.82716049382663,47.5 195.06172839506118,47.5 196.29629629629574,47.5 197.5308641975303,47.5 198.76543209876485,47.5 199.9999999999994,NaN " stroke="#fe4134" stroke-width="2" stroke-opacity="1" fill="none" fill-opacity="0" stroke-linejoin="round" vector-effect="non-scaling-stroke"/></svg>