<svg xmlns="http://www.w3.org/2000/svg" width="200" height="50" viewBox="0 0 200 50" shape-rendering="auto"><polyline points="0,7.58829036344064 1.2345679012345678,6.8243156612603535 2.4691358024691357,6.8243156612603535 3.7037037037037033,6.8243156612603535 4.938271604938271,6.8243156612603535 6.172839506172839,6.8243156612603535 7.407407407407407,6.8243156612603535 8.641975308641975,6.8243156612603535 9.876543209876543,6.8243156612603535 11.11111111111111,6.8243156612603535 12.345679012345679,6.8243156612603535 13.580246913580247,6.8243156612603535 14.814814814814815,6.8243156612603535 16.049382716049383,6.8243156612603535 17.28395061728395,6.8243156612603535 18.518518518518515,6.8243156612603535 19.75308641975308,6.8243156612603535 20.987654320987648,47.21151996922883 22.222222222222214,47.21151996922883 23.45679012345678,47.21151996922883 24.691358024691347,47.21151996922883 25.925925925925913,47.21151996922883 27.16049382716048,47.21151996922883 28.395061728395046,47.21151996922883 29.629629629629612,47.21151996922883 30.86419753086418,47.21151996922883 32.098765432098745,47.21151996922883 33.333333333333314,47.21151996922883 34.567901234567884,47.21151996922883 35.802469135802454,47.5 37.037037037037024,47.21151996922883 38.271604938271594,47.21151996922883 39.50617283950616,47.21151996922883 40.74074074074073,47.21151996922883 41.9753086419753,47.21151996922883 43.20987654320987,47.21151996922883 44.44444444444444,47.21151996922883 45.67901234567901,47.21151996922883 46.91358024691358,47.21151996922883 48.14814814814815,47.21151996922883 49.38271604938272,47.21151996922883 50.61728395061729,47.21151996922883 51.85185185185186,47.21151996922883 53.08641975308643,47.21151996922883 54.320987654321,47.21151996922883 55.55555555555557,47.21151996922883 56.79012345679014,47.21151996922883 58.02469135802471,47.21151996922883 59.25925925925928,47.21151996922883 60.49382716049385,47.21151996922883 61.72839506172842,47.21151996922883 62.96296296296299,47.21151996922883 64.19753086419756,47.21151996922883 65.43209876543213,47.21151996922883 66.6666666666667,47.21151996922883 67.90123456790127,47.21151996922883 69.13580246913584,15.481601384704124 70.37037037037041,15.481601384704124 71.60493827160498,15.481601384704124 72.83950617283955,15.481601384704124 74.07407407407412,15.481601384704124 75.30864197530869,15.481601384704124 76.54320987654326,15.481601384704124 77.77777777777783,15.481601384704124 79.0123456790124,12.596801076992152 80.24691358024697,12.596801076992152 81.48148148148154,12.596801076992152 82.71604938271611,8.269600615424071 83.95061728395068,8.269600615424071 85.18518518518525,8.269600615424071 86.41975308641982,8.269600615424071 87.65432098765439,8.269600615424071 88.88888888888896,8.269600615424071 90.12345679012353,8.269600615424071 91.3580246913581,8.269600615424071 92.59259259259267,8.269600615424071 93.82716049382724,8.269600615424071 95.0617283950618,8.269600615424071 96.29629629629638,8.269600615424071 97.53086419753095,8.269600615424071 98.76543209876552,8.269600615424071 100.00000000000009,8.269600615424071 101.23456790123466,8.269600615424071 102.46913580246922,8.269600615424071 103.7037037037038,7.86572857234443 104.93827160493836,8.266715815116338 106.17283950617293,9.709115968972325 107.4074074074075,12.596801076992152 108.64197530864207,12.593916276684423 109.87654320987664,12.596801076992152 111.11111111111121,12.596801076992152 112.34567901234578,12.596801076992152 113.58024691358035,12.596801076992152 114.81481481481492,12.596801076992152 116.0493827160495,12.596801076992152 117.28395061728406,12.596801076992152 118.51851851851863,12.599685877299885 119.7530864197532,12.596801076992152 120.98765432098777,12.596801076992152 122.22222222222234,12.596801076992152 123.45679012345691,12.596801076992152 124.69135802469148,12.596801076992152 125.92592592592605,12.596801076992152 127.16049382716062,9.712000769280055 128.39506172839518,9.712000769280055 129.62962962962973,2.500000000000002 130.8641975308643,2.500000000000002 132.09876543209884,2.500000000000002 133.3333333333334,2.500000000000002 134.56790123456796,2.500000000000002 135.8024691358025,2.511568049233956 137.03703703703707,2.54327200461571 138.27160493827162,3.1606192704660296 139.50617283950618,4.086640169241637 140.74074074074073,4.7212962369383416 141.9753086419753,5.526155522789891 143.20987654320984,6.103144432335392 144.4444444444444,7.029136483107841 145.67901234567896,7.894576575421484 146.9135802469135,8.69943586127316 148.14814814814807,9.218699916661398 149.38271604938262,9.913936790819939 150.61728395061718,15.997980639784627 151.85185185185173,16.690332713635442 153.0864197530863,17.498076799794852 154.32098765432085,18.308705686261987 155.5555555555554,18.88566574780433 156.79012345678996,19.546285018270357 158.0246913580245,29.93156612603368 159.25925925925907,24.13311750753256 160.49382716049362,24.13311750753256 161.72839506172818,24.13311750753256 162.96296296296273,24.13311750753256 164.1975308641973,24.13311750753256 165.43209876543185,29.902718122956628 166.6666666666664,29.902718122956628 167.90123456790096,29.902718122956628 169.1358024691355,32.7875184306686 170.37037037037007,44.32671966151673 171.60493827160462,44.32671966151673 172.83950617283918,44.32671966151673 174.07407407407374,45.766235015065114 175.3086419753083,45.766235015065114 176.54320987654285,45.766235015065114 177.7777777777774,45.766235015065114 179.01234567901196,45.766235015065114 180.2469135802465,45.766235015065114 181.48148148148107,45.766235015065114 182.71604938271562,45.766235015065114 183.95061728395018,45.766235015065114 185.18518518518474,45.766235015065114 186.4197530864193,45.766235015065114 187.65432098765385,45.766235015065114 188.8888888888884,45.766235015065114 190.12345679012296,45.766235015065114 191.3580246913575,45.766235015065114 192.59259259259207,45.766235015065114 193.82716049382663,45.766235015065114 195.06172839506118,45.766235015065114 196.29629629629574,45.766235015065114 197.5308641975303,34.51839861529588 198.76543209876485,34.51839861529588 199.9999999999994,NaN " stroke="#fe4134" stroke-width="2" stroke-opacity="1" fill="none" fill-opacity="0" stroke-linejoin="round" vector-effect="non-scaling-stroke"/></svg>